<svg width="202" height="62" viewBox="0 0 202 62" fill="none" xmlns="http://www.w3.org/2000/svg">
<path d="M35.3806 26.5485C35.5342 26.5866 35.6879 26.6057 35.8415 26.6057C35.9952 26.6057 36.1681 26.6057 36.3601 26.6057C37.4358 26.6057 38.4154 26.5103 39.2989 26.3196C40.1825 26.0908 40.9892 25.7475 41.7191 25.2897C42.4874 24.832 43.2173 24.2408 43.9088 23.516C44.6002 22.7531 45.2725 21.8377 45.9256 20.7696L48 22.3717C46.1561 24.9655 44.2545 26.7774 42.2953 27.8073C40.3361 28.8372 38.2617 29.3521 36.072 29.3521C35.2653 29.3521 34.5546 29.2758 33.94 29.1232C32.2881 31.8696 30.521 34.2155 28.6387 36.1609C26.7563 38.0681 24.8355 39.632 22.8763 40.8526C20.9172 42.0733 18.9772 42.9506 17.0564 43.4846C15.1357 44.0568 13.3493 44.3428 11.6975 44.3428C10.0072 44.3428 8.43217 44.0377 6.97239 43.4274C5.55102 42.8552 4.32173 42.016 3.28451 40.9099C2.2473 39.8037 1.44058 38.4877 0.864346 36.9619C0.288115 35.4361 0 33.7196 0 31.8124C0 29.9052 0.307323 27.9598 0.921969 25.9763C1.53661 23.9928 2.36255 22.0284 3.39976 20.083C4.47539 18.1377 5.72389 16.2686 7.14526 14.4758C8.56663 12.6449 10.1032 10.9474 11.7551 9.38352C13.407 7.8196 15.1164 6.40826 16.8836 5.14949C18.6507 3.89073 20.4178 2.86083 22.1849 2.0598L24.0288 4.46289C21.9928 5.91238 19.9184 7.74331 17.8055 9.95569C15.7311 12.1681 13.8295 14.5902 12.1008 17.2222C10.4106 19.8542 9.0084 22.6005 7.89436 25.4614C6.81873 28.2841 6.28091 31.0305 6.28091 33.7006C6.28091 36.1037 6.81873 37.9727 7.89436 39.3078C8.96999 40.6047 10.6026 41.2532 12.7923 41.2532C14.4826 41.2532 16.1537 40.9099 17.8055 40.2233C19.4574 39.5367 21.0708 38.6021 22.6459 37.4196C24.2209 36.2372 25.7383 34.8449 27.1981 33.2428C28.6579 31.6026 30.0408 29.8671 31.3469 28.0361C30.2329 27.3877 29.2533 26.5294 28.4082 25.4614C27.563 24.3552 26.8523 23.1155 26.2761 21.7423C25.6999 20.331 25.2581 18.8243 24.9508 17.2222C24.6819 15.6201 24.5474 13.9799 24.5474 12.3016C24.5474 10.6232 24.7587 9.04022 25.1813 7.55259C25.6038 6.06496 26.1801 4.76805 26.91 3.66186C27.6783 2.51753 28.5618 1.62114 29.5606 0.972682C30.5594 0.324227 31.6543 0 32.8451 0C33.9208 0 34.8811 0.286083 35.7263 0.858249C36.5714 1.39227 37.2821 2.15516 37.8583 3.14691C38.4346 4.10052 38.8764 5.24485 39.1837 6.57991C39.491 7.91496 39.6447 9.34538 39.6447 10.8712C39.6447 12.0155 39.5486 13.2742 39.3565 14.6474C39.1645 16.0206 38.8764 17.4129 38.4922 18.8243C38.1465 20.1975 37.7047 21.5707 37.1669 22.9438C36.6675 24.2789 36.072 25.4805 35.3806 26.5485ZM27.5438 12.3016C27.5438 13.4078 27.6399 14.6093 27.8319 15.9062C28.024 17.2031 28.3313 18.4619 28.7539 19.6825C29.1765 20.9031 29.7143 22.0475 30.3673 23.1155C31.0204 24.1454 31.8271 24.9655 32.7875 25.5758C33.479 24.2408 34.0552 22.8866 34.5162 21.5134C35.0156 20.1021 35.419 18.748 35.7263 17.4511C36.072 16.1541 36.3025 14.9526 36.4178 13.8464C36.5714 12.7021 36.6483 11.7103 36.6483 10.8712C36.6483 9.72682 36.5522 8.67785 36.3601 7.72424C36.1681 6.77063 35.8992 5.95052 35.5534 5.26393C35.2461 4.53918 34.8427 3.98609 34.3433 3.60464C33.8824 3.18506 33.3637 2.97526 32.7875 2.97526C32.0192 2.97526 31.3085 3.24227 30.6555 3.77629C30.0024 4.27217 29.4454 4.95877 28.9844 5.83609C28.5234 6.67527 28.1585 7.66702 27.8896 8.81135C27.6591 9.91754 27.5438 11.0809 27.5438 12.3016Z" fill="#2B85C5"/>
<path d="M48 22.4079C42.122 29.6427 28.8244 40.2385 14.8998 53.9105C15.9651 54.4422 17.5249 54.917 19.5794 55.3347C24.7535 56.512 28.8244 57.1007 31.7919 57.1007C36.5475 57.1007 38.9254 55.7335 38.9254 52.9991C38.9254 52.2775 38.659 51.7268 38.1264 51.347C38.1264 51.2711 38.1835 51.1571 38.2976 51.0052C38.4498 50.8533 38.5639 50.7773 38.64 50.7773C39.7053 50.8153 40.6374 51.2141 41.4363 51.9737C42.2733 52.7332 42.6918 53.6447 42.6918 54.7081C42.6918 56.531 41.7407 58.202 39.8384 59.7212C37.9742 61.2023 35.6725 61.9429 32.9332 61.9429C30.232 61.9429 27.5689 61.4681 24.9438 60.5187C22.3567 59.5692 20.074 58.6198 18.0956 57.6704C16.1173 56.6829 14.6906 56.1892 13.8155 56.1892C12.9785 56.1892 11.704 57.1387 9.99199 59.0376C8.27996 60.8985 6.92936 61.8289 5.94018 61.8289C5.33146 61.8289 4.83687 61.6201 4.45642 61.2023C4.07597 60.7466 3.88574 60.1959 3.88574 59.5503C3.88574 58.4109 4.47544 57.4805 5.65484 56.7589C10.4485 53.7966 16.6879 48.6696 24.3731 41.3778C32.0582 34.0481 36.2493 30.0012 39.5592 26.6971C38.1896 27.3047 37.8088 27.2029 35.7924 27.6587C33.7761 28.1144 36.0139 27.3462 34.7584 27.3462C33.541 27.3462 36.3549 26.6643 33.8439 26.4364C31.333 26.1706 35.0448 26.8885 34.0937 26.8885C33.1806 26.8885 35.5305 25.1803 34.3891 26.1677C33.2858 27.1171 35.0515 26.8294 34.9374 28.1207C33.4536 18.3794 36.9001 27.9908 34.3891 28.6464C38.0985 27.6779 31.3497 26.1647 31.3497 25.4051C33.9615 32.1307 33.2097 27.9526 34.3891 26.1677C35.6066 24.3447 32.8001 27.3608 33.9034 26.7152C32.1153 26.7152 35.0447 26.0316 33.9034 26.7152C35.7296 26.7152 30.3966 26.3386 33.4402 27.0222C36.4838 27.7058 34.9958 27.6887 36.9742 27.6887C38.9906 27.6887 43.2455 24.6154 44.7293 23.9318C46.213 23.2102 45.424 21.9429 46.3751 21.9429C47.3263 21.9429 45.2607 22.8636 48 22.4079Z" fill="#2B85C5"/>
<path d="M59.672 36.864C59.672 35.4347 59.9387 34.0267 60.472 32.64C61.0267 31.232 61.816 30.0693 62.84 29.152C63.096 27.7653 63.7573 26.6453 64.824 25.792C65.912 24.9173 67.4587 24.48 69.464 24.48C71.4693 24.48 73.0693 25.2693 74.264 26.848C75.48 28.4053 76.088 30.4427 76.088 32.96C76.088 34.6027 75.8427 36.16 75.352 37.632C76.3333 37.2907 77.2187 36.864 78.008 36.352C78.8187 35.8187 79.2347 35.552 79.256 35.552C79.4907 35.552 79.608 35.6907 79.608 35.968C79.608 36.2027 79.096 36.6613 78.072 37.344C77.048 38.0053 75.992 38.4747 74.904 38.752C74.1147 40.48 72.9947 41.8453 71.544 42.848C70.0933 43.8293 68.3333 44.32 66.264 44.32C64.216 44.32 62.6053 43.6373 61.432 42.272C60.2587 40.8853 59.672 39.0827 59.672 36.864ZM73.176 38.016C73.4533 37.056 73.592 35.9893 73.592 34.816C73.592 32.2987 73.112 30.1653 72.152 28.416C71.2133 26.6667 69.8693 25.792 68.12 25.792C67.3733 25.792 66.6267 26.0053 65.88 26.432C65.1547 26.8373 64.632 27.392 64.312 28.096C65.4213 27.4773 66.5413 27.168 67.672 27.168C68.824 27.168 69.4 27.328 69.4 27.648C69.4 27.84 69.3253 27.9893 69.176 28.096C69.0267 28.2027 68.8773 28.256 68.728 28.256C66.8933 28.256 65.336 28.8747 64.056 30.112C64.2267 32.288 65.176 34.1547 66.904 35.712C68.6533 37.248 70.744 38.016 73.176 38.016ZM67.48 42.688C70.04 42.688 71.8213 41.4827 72.824 39.072C70.264 39.072 68.0347 38.4 66.136 37.056C64.2587 35.712 63.1493 33.952 62.808 31.776C62.2107 32.9067 61.912 34.176 61.912 35.584C61.912 37.5253 62.4453 39.2 63.512 40.608C64.6 41.9947 65.9227 42.688 67.48 42.688ZM83.734 32.96C84.7153 32.96 85.526 33.3227 86.166 34.048C86.806 34.752 87.1367 35.744 87.158 37.024C88.0327 36.768 88.8007 36.4587 89.462 36.096C90.1447 35.7333 90.5073 35.552 90.55 35.552C90.678 35.552 90.742 35.6587 90.742 35.872C90.742 36.0853 90.4327 36.416 89.814 36.864C89.2167 37.312 88.31 37.76 87.094 38.208C86.838 40.1067 86.07 41.5787 84.79 42.624C83.51 43.648 82.23 44.16 80.95 44.16C79.67 44.16 78.8167 43.6907 78.39 42.752C77.9633 41.792 77.75 40.288 77.75 38.24C77.75 36.192 77.8993 34.2507 78.198 32.416C78.4967 30.5813 78.8807 29.1413 79.35 28.096C79.8193 27.0293 80.2993 26.2187 80.79 25.664C81.302 25.088 81.782 24.8 82.23 24.8C82.4433 24.8 82.6353 25.056 82.806 25.568C82.998 26.08 83.094 26.7093 83.094 27.456C83.094 29.0987 82.7953 31.0187 82.198 33.216C82.6033 33.0453 83.1153 32.96 83.734 32.96ZM85.174 38.72C85.0033 38.7413 84.6407 38.752 84.086 38.752C83.5527 38.752 82.9553 38.5707 82.294 38.208C81.654 37.824 81.2167 37.3013 80.982 36.64C80.7687 37.1733 80.5233 37.6853 80.246 38.176C80.2887 39.7973 80.4167 40.96 80.63 41.664C80.8433 42.368 81.1847 42.72 81.654 42.72C82.4007 42.72 83.126 42.4107 83.83 41.792C84.5553 41.152 85.0033 40.128 85.174 38.72ZM82.326 28.032C82.326 27.136 82.2087 26.688 81.974 26.688C81.782 26.688 81.5473 27.1573 81.27 28.096C81.014 29.0133 80.7687 30.272 80.534 31.872C80.3207 33.4507 80.214 35.0187 80.214 36.576C81.622 32.5867 82.326 29.7387 82.326 28.032ZM83.222 34.112C82.9233 34.112 82.678 34.208 82.486 34.4C82.3153 34.5707 82.23 34.8053 82.23 35.104C82.23 35.7653 82.518 36.32 83.094 36.768C83.6913 37.1947 84.406 37.408 85.238 37.408C85.2167 36.5333 85.046 35.7653 84.726 35.104C84.406 34.4427 83.9047 34.112 83.222 34.112ZM99.2348 37.056C100.088 36.7787 100.675 36.544 100.995 36.352C101.336 36.1387 101.592 35.9787 101.763 35.872L102.147 35.648C102.253 35.584 102.339 35.552 102.403 35.552C102.573 35.552 102.659 35.648 102.659 35.84C102.659 36.032 102.328 36.3733 101.667 36.864C101.005 37.3333 100.184 37.76 99.2028 38.144C99.0534 39.936 98.4881 41.3867 97.5068 42.496C96.5254 43.6053 95.1281 44.16 93.3148 44.16C91.9921 44.16 90.9787 43.6373 90.2747 42.592C89.5707 41.5253 89.2188 40.288 89.2188 38.88C89.2188 37.4507 89.6348 36.1067 90.4668 34.848C91.3201 33.5893 92.4081 32.96 93.7308 32.96C94.3281 32.5333 95.0321 32.32 95.8428 32.32C96.6748 32.32 97.4428 32.7573 98.1468 33.632C98.8508 34.5067 99.2134 35.648 99.2348 37.056ZM97.1548 38.688L96.0028 38.752C95.0214 38.752 94.1894 38.464 93.5068 37.888C92.8241 37.2907 92.4828 36.64 92.4828 35.936C92.4828 35.232 92.6001 34.624 92.8348 34.112C91.9174 34.8373 91.4588 36.2667 91.4588 38.4C91.4588 39.424 91.6721 40.4053 92.0988 41.344C92.5254 42.2613 93.1974 42.72 94.1148 42.72C95.0321 42.72 95.7468 42.336 96.2588 41.568C96.7708 40.7787 97.0694 39.8187 97.1548 38.688ZM95.1708 33.376C94.8294 33.376 94.5628 33.536 94.3708 33.856C94.1788 34.1547 94.0828 34.4853 94.0828 34.848C94.0828 35.6373 94.3494 36.2773 94.8828 36.768C95.4374 37.2587 96.0774 37.504 96.8028 37.504H97.1868C97.1441 36.4587 96.9628 35.5093 96.6428 34.656C96.3441 33.8027 95.8534 33.376 95.1708 33.376ZM109.995 44.16C109.27 44.16 108.704 44 108.299 43.68C108.128 43.5093 108.043 43.0613 108.043 42.336C108.043 41.6107 108.075 40.6613 108.139 39.488C107.563 41.024 106.976 42.1867 106.379 42.976C105.782 43.7653 105.024 44.16 104.107 44.16C103.211 44.16 102.443 43.7653 101.803 42.976C101.184 42.1867 100.875 40.928 100.875 39.2C100.875 37.472 101.355 35.9467 102.315 34.624C103.296 33.3013 104.576 32.64 106.155 32.64C106.923 32.64 107.723 32.9387 108.555 33.536C108.896 29.376 109.206 27.0293 109.483 26.496C109.611 26.2613 109.91 25.92 110.379 25.472C110.87 25.024 111.275 24.8 111.595 24.8C111.915 24.8 112.075 25.3013 112.075 26.304C112.075 27.4773 111.968 28.4907 111.755 29.344C111.179 31.5413 110.816 32.9387 110.667 33.536C110.368 35.84 110.219 38.5493 110.219 41.664C110.219 42.24 110.283 42.528 110.411 42.528C110.795 42.5067 111.307 42.0587 111.947 41.184C112.587 40.3093 113.216 39.1787 113.835 37.792C114.475 36.384 114.859 35.68 114.987 35.68C115.136 35.68 115.211 35.7653 115.211 35.936C115.211 36.5333 114.902 37.4827 114.283 38.784C112.598 42.368 111.168 44.16 109.995 44.16ZM105.963 33.792C105.387 33.792 104.811 34.2507 104.235 35.168C103.659 36.0853 103.371 37.152 103.371 38.368C103.371 39.5627 103.52 40.544 103.819 41.312C104.139 42.08 104.534 42.464 105.003 42.464C105.963 42.464 107.062 40.544 108.299 36.704C108.406 35.5307 108.459 34.8373 108.459 34.624C107.84 34.0693 107.008 33.792 105.963 33.792ZM136.26 27.808C136.26 28.4267 136.014 28.96 135.524 29.408C135.033 29.856 134.446 30.08 133.764 30.08C133.102 30.08 132.334 29.8773 131.46 29.472C129.156 32.2453 126.937 35.7547 124.804 40C125.828 40.1493 127.3 40.5333 129.22 41.152C131.161 41.7707 132.249 42.08 132.484 42.08C133.7 42.08 135.012 40.5547 136.42 37.504C136.974 36.288 137.38 35.68 137.636 35.68C137.764 35.68 137.828 35.8187 137.828 36.096C137.828 36.352 137.465 37.3013 136.74 38.944C136.014 40.5653 135.406 41.7707 134.916 42.56C134.446 43.3493 133.945 43.9147 133.412 44.256C132.878 44.6187 132.089 44.8 131.044 44.8C130.532 44.8 129.444 44.3413 127.78 43.424C126.116 42.5067 124.857 42.048 124.004 42.048C123.342 43.3493 122.724 44 122.148 44C121.23 44 120.772 43.5947 120.772 42.784C120.772 42.4213 120.985 41.952 121.412 41.376C121.86 40.7787 122.372 40.352 122.948 40.096C125.593 35.5733 128.164 31.8933 130.66 29.056C127.929 27.4987 125.849 26.72 124.42 26.72C123.886 26.72 123.62 27.1787 123.62 28.096C123.62 28.352 123.684 28.7253 123.812 29.216C123.94 29.6853 124.004 29.9627 124.004 30.048C124.004 30.304 123.876 30.432 123.62 30.432C123.385 30.432 123.129 30.0693 122.852 29.344C122.596 28.5973 122.468 27.8293 122.468 27.04C122.468 26.2507 122.628 25.5787 122.948 25.024C123.268 24.448 123.684 24.16 124.196 24.16C124.729 24.16 125.273 24.224 125.828 24.352C126.382 24.48 126.862 24.6187 127.268 24.768C127.673 24.9173 128.142 25.152 128.676 25.472C129.23 25.7707 129.636 25.9947 129.892 26.144C130.83 26.784 131.534 27.2747 132.004 27.616C133.113 26.5493 133.988 26.016 134.628 26.016C135.054 26.016 135.428 26.1547 135.748 26.432C136.089 26.7093 136.26 27.168 136.26 27.808ZM134.564 27.776C134.564 27.4773 134.393 27.328 134.052 27.328C133.71 27.328 133.273 27.5733 132.74 28.064C133.102 28.256 133.39 28.352 133.604 28.352C134.244 28.352 134.564 28.16 134.564 27.776ZM144.867 44.16C144.035 44.16 143.406 43.9893 142.979 43.648C142.83 43.4987 142.755 43.1253 142.755 42.528C142.755 41.9093 142.776 41.088 142.819 40.064C142.264 41.4507 141.71 42.4853 141.155 43.168C140.622 43.8293 139.928 44.16 139.075 44.16C138.222 44.16 137.475 43.7653 136.835 42.976C136.195 42.1653 135.875 40.9067 135.875 39.2C135.875 37.472 136.355 35.9467 137.315 34.624C138.296 33.3013 139.576 32.64 141.155 32.64C141.838 32.64 142.606 33.088 143.459 33.984C143.63 33.7493 143.928 33.472 144.355 33.152C144.803 32.8107 145.176 32.64 145.475 32.64C145.795 32.64 145.955 33.0453 145.955 33.856C145.955 34.0693 145.891 34.4853 145.763 35.104C145.656 35.7227 145.528 36.1707 145.379 36.448C145.187 36.9387 145.091 38.6773 145.091 41.664C145.091 42.24 145.155 42.528 145.283 42.528C145.646 42.5067 146.147 42.0587 146.787 41.184C147.427 40.288 148.056 39.1467 148.675 37.76C149.315 36.3733 149.699 35.68 149.827 35.68C149.976 35.68 150.051 35.7653 150.051 35.936C150.051 36.5333 149.742 37.4827 149.123 38.784C147.438 42.368 146.019 44.16 144.867 44.16ZM140.963 33.92C140.366 33.92 139.726 34.368 139.043 35.264C138.382 36.1387 138.051 37.1733 138.051 38.368C138.051 39.5627 138.222 40.544 138.563 41.312C138.926 42.08 139.395 42.464 139.971 42.464C140.675 42.464 141.71 40.704 143.075 37.184C143.096 37.0133 143.118 36.7253 143.139 36.32C143.182 35.8933 143.214 35.5733 143.235 35.36C143.043 35.0187 142.702 34.6987 142.211 34.4C141.742 34.08 141.326 33.92 140.963 33.92ZM150.909 35.648L152.669 35.456C152.84 35.456 152.989 35.552 153.117 35.744C153.245 35.936 153.309 36.1387 153.309 36.352C153.309 36.5653 153.234 37.2907 153.085 38.528C152.957 39.7653 152.893 40.7467 152.893 41.472C152.893 42.176 152.957 42.528 153.085 42.528C153.448 42.5067 153.949 42.0587 154.589 41.184C155.229 40.288 155.858 39.1467 156.477 37.76C157.117 36.3733 157.501 35.68 157.629 35.68C157.778 35.68 157.853 35.7653 157.853 35.936C157.853 36.5333 157.544 37.4827 156.925 38.784C155.24 42.368 153.821 44.16 152.669 44.16C151.837 44.16 151.208 43.9893 150.781 43.648C150.632 43.4987 150.557 42.5707 150.557 40.864C150.557 39.1573 150.738 37.696 151.101 36.48C149.864 36.48 149 36.0853 148.509 35.296C148.253 34.8907 148.125 34.432 148.125 33.92C148.125 33.408 148.232 32.96 148.445 32.576C148.658 32.192 148.957 32 149.341 32C149.746 32 150.109 32.2133 150.429 32.64C150.77 33.0453 150.941 33.504 150.941 34.016C150.941 34.528 150.792 35.04 150.493 35.552C150.578 35.616 150.717 35.648 150.909 35.648ZM162.265 32.96C163.247 32.96 164.057 33.3227 164.697 34.048C165.337 34.752 165.668 35.744 165.689 37.024C166.564 36.768 167.332 36.4587 167.993 36.096C168.676 35.7333 169.039 35.552 169.081 35.552C169.209 35.552 169.273 35.6587 169.273 35.872C169.273 36.0853 168.964 36.416 168.345 36.864C167.748 37.312 166.841 37.76 165.625 38.208C165.369 40.1067 164.601 41.5787 163.321 42.624C162.041 43.648 160.761 44.16 159.481 44.16C158.201 44.16 157.348 43.6907 156.921 42.752C156.495 41.792 156.281 40.288 156.281 38.24C156.281 36.192 156.431 34.2507 156.729 32.416C157.028 30.5813 157.412 29.1413 157.881 28.096C158.351 27.0293 158.831 26.2187 159.321 25.664C159.833 25.088 160.313 24.8 160.761 24.8C160.975 24.8 161.167 25.056 161.337 25.568C161.529 26.08 161.625 26.7093 161.625 27.456C161.625 29.0987 161.327 31.0187 160.729 33.216C161.135 33.0453 161.647 32.96 162.265 32.96ZM163.705 38.72C163.535 38.7413 163.172 38.752 162.617 38.752C162.084 38.752 161.487 38.5707 160.825 38.208C160.185 37.824 159.748 37.3013 159.513 36.64C159.3 37.1733 159.055 37.6853 158.777 38.176C158.82 39.7973 158.948 40.96 159.161 41.664C159.375 42.368 159.716 42.72 160.185 42.72C160.932 42.72 161.657 42.4107 162.361 41.792C163.087 41.152 163.535 40.128 163.705 38.72ZM160.857 28.032C160.857 27.136 160.74 26.688 160.505 26.688C160.313 26.688 160.079 27.1573 159.801 28.096C159.545 29.0133 159.3 30.272 159.065 31.872C158.852 33.4507 158.745 35.0187 158.745 36.576C160.153 32.5867 160.857 29.7387 160.857 28.032ZM161.753 34.112C161.455 34.112 161.209 34.208 161.017 34.4C160.847 34.5707 160.761 34.8053 160.761 35.104C160.761 35.7653 161.049 36.32 161.625 36.768C162.223 37.1947 162.937 37.408 163.769 37.408C163.748 36.5333 163.577 35.7653 163.257 35.104C162.937 34.4427 162.436 34.112 161.753 34.112ZM176.87 44.16C176.145 44.16 175.579 44 175.174 43.68C175.003 43.5093 174.918 43.0613 174.918 42.336C174.918 41.6107 174.95 40.6613 175.014 39.488C174.438 41.024 173.851 42.1867 173.254 42.976C172.657 43.7653 171.899 44.16 170.982 44.16C170.086 44.16 169.318 43.7653 168.678 42.976C168.059 42.1867 167.75 40.928 167.75 39.2C167.75 37.472 168.23 35.9467 169.19 34.624C170.171 33.3013 171.451 32.64 173.03 32.64C173.798 32.64 174.598 32.9387 175.43 33.536C175.771 29.376 176.081 27.0293 176.358 26.496C176.486 26.2613 176.785 25.92 177.254 25.472C177.745 25.024 178.15 24.8 178.47 24.8C178.79 24.8 178.95 25.3013 178.95 26.304C178.95 27.4773 178.843 28.4907 178.63 29.344C178.054 31.5413 177.691 32.9387 177.542 33.536C177.243 35.84 177.094 38.5493 177.094 41.664C177.094 42.24 177.158 42.528 177.286 42.528C177.67 42.5067 178.182 42.0587 178.822 41.184C179.462 40.3093 180.091 39.1787 180.71 37.792C181.35 36.384 181.734 35.68 181.862 35.68C182.011 35.68 182.086 35.7653 182.086 35.936C182.086 36.5333 181.777 37.4827 181.158 38.784C179.473 42.368 178.043 44.16 176.87 44.16ZM172.838 33.792C172.262 33.792 171.686 34.2507 171.11 35.168C170.534 36.0853 170.246 37.152 170.246 38.368C170.246 39.5627 170.395 40.544 170.694 41.312C171.014 42.08 171.409 42.464 171.878 42.464C172.838 42.464 173.937 40.544 175.174 36.704C175.281 35.5307 175.334 34.8373 175.334 34.624C174.715 34.0693 173.883 33.792 172.838 33.792ZM190.36 37.056C191.213 36.7787 191.8 36.544 192.12 36.352C192.461 36.1387 192.717 35.9787 192.888 35.872L193.272 35.648C193.378 35.584 193.464 35.552 193.528 35.552C193.698 35.552 193.784 35.648 193.784 35.84C193.784 36.032 193.453 36.3733 192.792 36.864C192.13 37.3333 191.309 37.76 190.328 38.144C190.178 39.936 189.613 41.3867 188.632 42.496C187.65 43.6053 186.253 44.16 184.44 44.16C183.117 44.16 182.104 43.6373 181.4 42.592C180.696 41.5253 180.344 40.288 180.344 38.88C180.344 37.4507 180.76 36.1067 181.592 34.848C182.445 33.5893 183.533 32.96 184.856 32.96C185.453 32.5333 186.157 32.32 186.968 32.32C187.8 32.32 188.568 32.7573 189.272 33.632C189.976 34.5067 190.338 35.648 190.36 37.056ZM188.28 38.688L187.128 38.752C186.146 38.752 185.314 38.464 184.632 37.888C183.949 37.2907 183.608 36.64 183.608 35.936C183.608 35.232 183.725 34.624 183.96 34.112C183.042 34.8373 182.584 36.2667 182.584 38.4C182.584 39.424 182.797 40.4053 183.224 41.344C183.65 42.2613 184.322 42.72 185.24 42.72C186.157 42.72 186.872 42.336 187.384 41.568C187.896 40.7787 188.194 39.8187 188.28 38.688ZM186.296 33.376C185.954 33.376 185.688 33.536 185.496 33.856C185.304 34.1547 185.208 34.4853 185.208 34.848C185.208 35.6373 185.474 36.2773 186.008 36.768C186.562 37.2587 187.202 37.504 187.928 37.504H188.312C188.269 36.4587 188.088 35.5093 187.768 34.656C187.469 33.8027 186.978 33.376 186.296 33.376ZM194.784 35.648L196.544 35.456C196.715 35.456 196.864 35.552 196.992 35.744C197.12 35.936 197.184 36.1387 197.184 36.352C197.184 36.5653 197.109 37.2907 196.96 38.528C196.832 39.7653 196.768 40.7467 196.768 41.472C196.768 42.176 196.832 42.528 196.96 42.528C197.323 42.5067 197.824 42.0587 198.464 41.184C199.104 40.288 199.733 39.1467 200.352 37.76C200.992 36.3733 201.376 35.68 201.504 35.68C201.653 35.68 201.728 35.7653 201.728 35.936C201.728 36.5333 201.419 37.4827 200.8 38.784C199.115 42.368 197.696 44.16 196.544 44.16C195.712 44.16 195.083 43.9893 194.656 43.648C194.507 43.4987 194.432 42.5707 194.432 40.864C194.432 39.1573 194.613 37.696 194.976 36.48C193.739 36.48 192.875 36.0853 192.384 35.296C192.128 34.8907 192 34.432 192 33.92C192 33.408 192.107 32.96 192.32 32.576C192.533 32.192 192.832 32 193.216 32C193.621 32 193.984 32.2133 194.304 32.64C194.645 33.0453 194.816 33.504 194.816 34.016C194.816 34.528 194.667 35.04 194.368 35.552C194.453 35.616 194.592 35.648 194.784 35.648Z" fill="#2B85C5"/>
</svg>
